# xmcd
#
# Track frame offsets: 
#        150
#        14064
#        33081
#        51156
#        67996
#        86665
#        100929
#        119088
#        138420
#        155708
#
# Disc length: 2554 seconds
#
# Revision: 0
# Processed by: cddbd v1.5.2PL0 Copyright (c) Steve Scherf et al.
# Submitted via: ExactAudioCopy v1.0b1
#
DISCID=8909f80a
DTITLE=Alexa - Alexa
DYEAR=2008
DGENRE=Pop
TTITLE0=Kau Khianati
TTITLE1=Jangan Pernah Pergi
TTITLE2=Jangan Kau Lepas
TTITLE3=Lupakan Saja
TTITLE4=Maafkanlah
TTITLE5=Biarkan Saja Aku
TTITLE6=Hingga Saatnya Kan Tiba
TTITLE7=Dewi
TTITLE8=Tak Kan Pernah Bisa
TTITLE9=Salahkah
EXTD=
EXTT0=
EXTT1=
EXTT2=
EXTT3=
EXTT4=
EXTT5=
EXTT6=
EXTT7=
EXTT8=
EXTT9=
PLAYORDER=
